<mxfile host="app.diagrams.net" agent="Mozilla/5.0 (Windows NT 10.0; Win64; x64) AppleWebKit/537.36 (KHTML, like Gecko) Chrome/127.0.0.0 Safari/537.36" version="24.7.7">
  <diagram name="Page-1" id="HXjhTigB1uAC9-UdUDHo">
    <mxGraphModel dx="2438" dy="908" grid="1" gridSize="10" guides="1" tooltips="1" connect="1" arrows="1" fold="1" page="1" pageScale="1" pageWidth="850" pageHeight="1100" math="0" shadow="0">
      <root>
        <mxCell id="0" />
        <mxCell id="1" parent="0" />
        <mxCell id="swwXbOUosh_vLgJjzAKB-1" value="DepMap" style="shape=cylinder3;whiteSpace=wrap;html=1;boundedLbl=1;backgroundOutline=1;size=15;" vertex="1" parent="1">
          <mxGeometry x="299" y="459.11" width="80" height="60" as="geometry" />
        </mxCell>
        <mxCell id="swwXbOUosh_vLgJjzAKB-3" value="GTEx" style="shape=cylinder3;whiteSpace=wrap;html=1;boundedLbl=1;backgroundOutline=1;size=15;" vertex="1" parent="1">
          <mxGeometry x="440" y="580" width="80" height="60" as="geometry" />
        </mxCell>
        <mxCell id="swwXbOUosh_vLgJjzAKB-4" value="ProtT5" style="shape=cylinder3;whiteSpace=wrap;html=1;boundedLbl=1;backgroundOutline=1;size=15;" vertex="1" parent="1">
          <mxGeometry x="582" y="700" width="80" height="60" as="geometry" />
        </mxCell>
        <mxCell id="swwXbOUosh_vLgJjzAKB-5" value="" style="rounded=0;whiteSpace=wrap;html=1;" vertex="1" parent="1">
          <mxGeometry x="299" y="559.11" width="80" height="60" as="geometry" />
        </mxCell>
        <mxCell id="swwXbOUosh_vLgJjzAKB-8" value="" style="endArrow=none;dashed=1;html=1;rounded=0;exitX=0;exitY=0.25;exitDx=0;exitDy=0;entryX=1;entryY=0.25;entryDx=0;entryDy=0;" edge="1" parent="1" source="swwXbOUosh_vLgJjzAKB-5" target="swwXbOUosh_vLgJjzAKB-5">
          <mxGeometry width="50" height="50" relative="1" as="geometry">
            <mxPoint x="679" y="659.11" as="sourcePoint" />
            <mxPoint x="729" y="609.11" as="targetPoint" />
          </mxGeometry>
        </mxCell>
        <mxCell id="swwXbOUosh_vLgJjzAKB-9" value="" style="endArrow=none;dashed=1;html=1;rounded=0;exitX=0;exitY=0.5;exitDx=0;exitDy=0;entryX=1;entryY=0.5;entryDx=0;entryDy=0;" edge="1" parent="1">
          <mxGeometry width="50" height="50" relative="1" as="geometry">
            <mxPoint x="299" y="585.11" as="sourcePoint" />
            <mxPoint x="379" y="585.11" as="targetPoint" />
          </mxGeometry>
        </mxCell>
        <mxCell id="swwXbOUosh_vLgJjzAKB-10" value="" style="endArrow=none;dashed=1;html=1;rounded=0;entryX=0.25;entryY=0;entryDx=0;entryDy=0;exitX=0.25;exitY=1;exitDx=0;exitDy=0;" edge="1" parent="1" source="swwXbOUosh_vLgJjzAKB-5" target="swwXbOUosh_vLgJjzAKB-5">
          <mxGeometry width="50" height="50" relative="1" as="geometry">
            <mxPoint x="679" y="659.11" as="sourcePoint" />
            <mxPoint x="729" y="609.11" as="targetPoint" />
          </mxGeometry>
        </mxCell>
        <mxCell id="swwXbOUosh_vLgJjzAKB-11" value="" style="endArrow=none;dashed=1;html=1;rounded=0;entryX=0.5;entryY=0;entryDx=0;entryDy=0;exitX=0.5;exitY=1;exitDx=0;exitDy=0;" edge="1" parent="1">
          <mxGeometry width="50" height="50" relative="1" as="geometry">
            <mxPoint x="330" y="619.11" as="sourcePoint" />
            <mxPoint x="330" y="559.11" as="targetPoint" />
          </mxGeometry>
        </mxCell>
        <mxCell id="swwXbOUosh_vLgJjzAKB-12" value="&lt;font style=&quot;font-size: 14px;&quot;&gt;gene&lt;sub&gt;i&lt;/sub&gt;&lt;/font&gt;" style="text;html=1;align=center;verticalAlign=middle;whiteSpace=wrap;rounded=0;" vertex="1" parent="1">
          <mxGeometry x="259" y="571.11" width="43" height="20" as="geometry" />
        </mxCell>
        <mxCell id="swwXbOUosh_vLgJjzAKB-13" value="&lt;font style=&quot;font-size: 14px;&quot;&gt;&lt;font style=&quot;&quot;&gt;sample&lt;sub style=&quot;&quot;&gt;j&lt;/sub&gt;&lt;/font&gt;&lt;font style=&quot;&quot;&gt;&lt;sup style=&quot;&quot;&gt;(1)&lt;/sup&gt;&lt;/font&gt;&lt;/font&gt;" style="text;html=1;align=center;verticalAlign=middle;whiteSpace=wrap;rounded=0;rotation=30;" vertex="1" parent="1">
          <mxGeometry x="307.76" y="627.36" width="77.98" height="20" as="geometry" />
        </mxCell>
        <mxCell id="swwXbOUosh_vLgJjzAKB-37" value="&lt;font style=&quot;font-size: 14px;&quot;&gt;&lt;b&gt;X&lt;sup&gt;(1)&lt;/sup&gt;&lt;/b&gt;&lt;/font&gt;" style="text;html=1;align=center;verticalAlign=middle;resizable=0;points=[];autosize=1;strokeColor=none;fillColor=none;" vertex="1" parent="1">
          <mxGeometry x="273" y="538.11" width="50" height="30" as="geometry" />
        </mxCell>
        <mxCell id="swwXbOUosh_vLgJjzAKB-38" value="&lt;font style=&quot;font-size: 14px;&quot;&gt;&lt;b&gt;X&lt;sup&gt;(2)&lt;/sup&gt;&lt;/b&gt;&lt;/font&gt;" style="text;html=1;align=center;verticalAlign=middle;resizable=0;points=[];autosize=1;strokeColor=none;fillColor=none;" vertex="1" parent="1">
          <mxGeometry x="415" y="658" width="50" height="30" as="geometry" />
        </mxCell>
        <mxCell id="swwXbOUosh_vLgJjzAKB-39" value="&lt;font style=&quot;font-size: 14px;&quot;&gt;&lt;b&gt;X&lt;sup&gt;(3)&lt;/sup&gt;&lt;/b&gt;&lt;/font&gt;" style="text;html=1;align=center;verticalAlign=middle;resizable=0;points=[];autosize=1;strokeColor=none;fillColor=none;" vertex="1" parent="1">
          <mxGeometry x="557" y="778" width="50" height="30" as="geometry" />
        </mxCell>
        <mxCell id="swwXbOUosh_vLgJjzAKB-40" value="" style="rounded=0;whiteSpace=wrap;html=1;" vertex="1" parent="1">
          <mxGeometry x="440" y="680" width="80" height="60" as="geometry" />
        </mxCell>
        <mxCell id="swwXbOUosh_vLgJjzAKB-41" value="" style="endArrow=none;dashed=1;html=1;rounded=0;exitX=0;exitY=0.25;exitDx=0;exitDy=0;entryX=1;entryY=0.25;entryDx=0;entryDy=0;" edge="1" parent="1" source="swwXbOUosh_vLgJjzAKB-40" target="swwXbOUosh_vLgJjzAKB-40">
          <mxGeometry width="50" height="50" relative="1" as="geometry">
            <mxPoint x="820" y="780" as="sourcePoint" />
            <mxPoint x="870" y="730" as="targetPoint" />
          </mxGeometry>
        </mxCell>
        <mxCell id="swwXbOUosh_vLgJjzAKB-42" value="" style="endArrow=none;dashed=1;html=1;rounded=0;exitX=0;exitY=0.5;exitDx=0;exitDy=0;entryX=1;entryY=0.5;entryDx=0;entryDy=0;" edge="1" parent="1">
          <mxGeometry width="50" height="50" relative="1" as="geometry">
            <mxPoint x="440" y="706" as="sourcePoint" />
            <mxPoint x="520" y="706" as="targetPoint" />
          </mxGeometry>
        </mxCell>
        <mxCell id="swwXbOUosh_vLgJjzAKB-43" value="" style="endArrow=none;dashed=1;html=1;rounded=0;entryX=0.25;entryY=0;entryDx=0;entryDy=0;exitX=0.25;exitY=1;exitDx=0;exitDy=0;" edge="1" parent="1">
          <mxGeometry width="50" height="50" relative="1" as="geometry">
            <mxPoint x="479" y="740" as="sourcePoint" />
            <mxPoint x="479" y="680" as="targetPoint" />
          </mxGeometry>
        </mxCell>
        <mxCell id="swwXbOUosh_vLgJjzAKB-44" value="" style="endArrow=none;dashed=1;html=1;rounded=0;entryX=0.5;entryY=0;entryDx=0;entryDy=0;exitX=0.5;exitY=1;exitDx=0;exitDy=0;" edge="1" parent="1">
          <mxGeometry width="50" height="50" relative="1" as="geometry">
            <mxPoint x="489" y="740" as="sourcePoint" />
            <mxPoint x="489" y="680" as="targetPoint" />
          </mxGeometry>
        </mxCell>
        <mxCell id="swwXbOUosh_vLgJjzAKB-45" value="&lt;font style=&quot;font-size: 14px;&quot;&gt;gene&lt;sub&gt;i&lt;/sub&gt;&lt;/font&gt;" style="text;html=1;align=center;verticalAlign=middle;whiteSpace=wrap;rounded=0;" vertex="1" parent="1">
          <mxGeometry x="400" y="692" width="43" height="20" as="geometry" />
        </mxCell>
        <mxCell id="swwXbOUosh_vLgJjzAKB-46" value="&lt;font style=&quot;font-size: 14px;&quot;&gt;sample&lt;sub&gt;j&#39;&lt;/sub&gt;&lt;sup&gt;(2)&lt;/sup&gt;&lt;/font&gt;" style="text;html=1;align=center;verticalAlign=middle;whiteSpace=wrap;rounded=0;rotation=30;" vertex="1" parent="1">
          <mxGeometry x="468.5" y="748.87" width="79.74" height="20" as="geometry" />
        </mxCell>
        <mxCell id="swwXbOUosh_vLgJjzAKB-47" value="" style="rounded=0;whiteSpace=wrap;html=1;" vertex="1" parent="1">
          <mxGeometry x="582" y="800" width="80" height="60" as="geometry" />
        </mxCell>
        <mxCell id="swwXbOUosh_vLgJjzAKB-48" value="" style="endArrow=none;dashed=1;html=1;rounded=0;exitX=0;exitY=0.25;exitDx=0;exitDy=0;entryX=1;entryY=0.25;entryDx=0;entryDy=0;" edge="1" parent="1" source="swwXbOUosh_vLgJjzAKB-47" target="swwXbOUosh_vLgJjzAKB-47">
          <mxGeometry width="50" height="50" relative="1" as="geometry">
            <mxPoint x="962" y="900" as="sourcePoint" />
            <mxPoint x="1012" y="850" as="targetPoint" />
          </mxGeometry>
        </mxCell>
        <mxCell id="swwXbOUosh_vLgJjzAKB-49" value="" style="endArrow=none;dashed=1;html=1;rounded=0;exitX=0;exitY=0.5;exitDx=0;exitDy=0;entryX=1;entryY=0.5;entryDx=0;entryDy=0;" edge="1" parent="1">
          <mxGeometry width="50" height="50" relative="1" as="geometry">
            <mxPoint x="582" y="826" as="sourcePoint" />
            <mxPoint x="662" y="826" as="targetPoint" />
          </mxGeometry>
        </mxCell>
        <mxCell id="swwXbOUosh_vLgJjzAKB-50" value="" style="endArrow=none;dashed=1;html=1;rounded=0;entryX=0.25;entryY=0;entryDx=0;entryDy=0;exitX=0.25;exitY=1;exitDx=0;exitDy=0;" edge="1" parent="1">
          <mxGeometry width="50" height="50" relative="1" as="geometry">
            <mxPoint x="642" y="860" as="sourcePoint" />
            <mxPoint x="642" y="800" as="targetPoint" />
          </mxGeometry>
        </mxCell>
        <mxCell id="swwXbOUosh_vLgJjzAKB-51" value="" style="endArrow=none;dashed=1;html=1;rounded=0;entryX=0.5;entryY=0;entryDx=0;entryDy=0;exitX=0.5;exitY=1;exitDx=0;exitDy=0;" edge="1" parent="1">
          <mxGeometry width="50" height="50" relative="1" as="geometry">
            <mxPoint x="651" y="860" as="sourcePoint" />
            <mxPoint x="651" y="800" as="targetPoint" />
          </mxGeometry>
        </mxCell>
        <mxCell id="swwXbOUosh_vLgJjzAKB-52" value="&lt;font style=&quot;font-size: 14px;&quot;&gt;gene&lt;sub&gt;i&lt;/sub&gt;&lt;/font&gt;" style="text;html=1;align=center;verticalAlign=middle;whiteSpace=wrap;rounded=0;" vertex="1" parent="1">
          <mxGeometry x="542" y="812" width="43" height="20" as="geometry" />
        </mxCell>
        <mxCell id="swwXbOUosh_vLgJjzAKB-53" value="&lt;font style=&quot;font-size: 14px;&quot;&gt;sample&lt;sub&gt;j&#39;&#39;&lt;/sub&gt;&lt;sup&gt;(3)&lt;/sup&gt;&lt;/font&gt;" style="text;html=1;align=center;verticalAlign=middle;whiteSpace=wrap;rounded=0;rotation=30;" vertex="1" parent="1">
          <mxGeometry x="632.5" y="870.87" width="79.74" height="20" as="geometry" />
        </mxCell>
        <mxCell id="swwXbOUosh_vLgJjzAKB-54" value="" style="shape=flexArrow;endArrow=classic;html=1;rounded=0;exitX=0.5;exitY=1;exitDx=0;exitDy=0;exitPerimeter=0;entryX=0.5;entryY=0;entryDx=0;entryDy=0;width=3;endSize=6.78;endWidth=12;" edge="1" parent="1" source="swwXbOUosh_vLgJjzAKB-1" target="swwXbOUosh_vLgJjzAKB-5">
          <mxGeometry width="50" height="50" relative="1" as="geometry">
            <mxPoint x="679" y="669.11" as="sourcePoint" />
            <mxPoint x="729" y="619.11" as="targetPoint" />
          </mxGeometry>
        </mxCell>
        <mxCell id="swwXbOUosh_vLgJjzAKB-55" value="" style="shape=flexArrow;endArrow=classic;html=1;rounded=0;exitX=0.5;exitY=1;exitDx=0;exitDy=0;exitPerimeter=0;entryX=0.5;entryY=0;entryDx=0;entryDy=0;width=3;endSize=6.78;endWidth=12;" edge="1" parent="1" source="swwXbOUosh_vLgJjzAKB-3" target="swwXbOUosh_vLgJjzAKB-40">
          <mxGeometry width="50" height="50" relative="1" as="geometry">
            <mxPoint x="330" y="650" as="sourcePoint" />
            <mxPoint x="330" y="690" as="targetPoint" />
          </mxGeometry>
        </mxCell>
        <mxCell id="swwXbOUosh_vLgJjzAKB-56" value="" style="shape=flexArrow;endArrow=classic;html=1;rounded=0;exitX=0.5;exitY=1;exitDx=0;exitDy=0;exitPerimeter=0;entryX=0.5;entryY=0;entryDx=0;entryDy=0;width=3;endSize=6.78;endWidth=12;" edge="1" parent="1" source="swwXbOUosh_vLgJjzAKB-4" target="swwXbOUosh_vLgJjzAKB-47">
          <mxGeometry width="50" height="50" relative="1" as="geometry">
            <mxPoint x="322" y="780" as="sourcePoint" />
            <mxPoint x="322" y="820" as="targetPoint" />
          </mxGeometry>
        </mxCell>
        <mxCell id="swwXbOUosh_vLgJjzAKB-57" value="" style="rounded=0;whiteSpace=wrap;html=1;" vertex="1" parent="1">
          <mxGeometry x="-291" y="680" width="80" height="60" as="geometry" />
        </mxCell>
        <mxCell id="swwXbOUosh_vLgJjzAKB-58" value="" style="rounded=0;whiteSpace=wrap;html=1;" vertex="1" parent="1">
          <mxGeometry x="-200" y="420" width="80" height="60" as="geometry" />
        </mxCell>
        <mxCell id="swwXbOUosh_vLgJjzAKB-59" value="" style="rounded=0;whiteSpace=wrap;html=1;" vertex="1" parent="1">
          <mxGeometry x="-140" y="440" width="80" height="60" as="geometry" />
        </mxCell>
        <mxCell id="swwXbOUosh_vLgJjzAKB-60" value="" style="rounded=0;whiteSpace=wrap;html=1;" vertex="1" parent="1">
          <mxGeometry x="-80" y="460" width="80" height="60" as="geometry" />
        </mxCell>
        <mxCell id="swwXbOUosh_vLgJjzAKB-61" value="" style="endArrow=none;dashed=1;html=1;rounded=0;exitX=0;exitY=0.25;exitDx=0;exitDy=0;entryX=1;entryY=0.25;entryDx=0;entryDy=0;" edge="1" parent="1" source="swwXbOUosh_vLgJjzAKB-57" target="swwXbOUosh_vLgJjzAKB-57">
          <mxGeometry width="50" height="50" relative="1" as="geometry">
            <mxPoint x="314" y="496" as="sourcePoint" />
            <mxPoint x="394" y="496" as="targetPoint" />
          </mxGeometry>
        </mxCell>
        <mxCell id="swwXbOUosh_vLgJjzAKB-62" value="" style="endArrow=none;dashed=1;html=1;rounded=0;exitX=0;exitY=0.5;exitDx=0;exitDy=0;entryX=1;entryY=0.5;entryDx=0;entryDy=0;" edge="1" parent="1">
          <mxGeometry width="50" height="50" relative="1" as="geometry">
            <mxPoint x="-291" y="706" as="sourcePoint" />
            <mxPoint x="-211" y="706" as="targetPoint" />
          </mxGeometry>
        </mxCell>
        <mxCell id="swwXbOUosh_vLgJjzAKB-63" value="&lt;font style=&quot;font-size: 14px;&quot;&gt;a&lt;sub&gt;i&lt;/sub&gt;&lt;/font&gt;" style="text;html=1;align=center;verticalAlign=middle;whiteSpace=wrap;rounded=0;" vertex="1" parent="1">
          <mxGeometry x="-322" y="691" width="43" height="20" as="geometry" />
        </mxCell>
        <mxCell id="swwXbOUosh_vLgJjzAKB-64" value="" style="endArrow=none;dashed=1;html=1;rounded=0;entryX=0.25;entryY=0;entryDx=0;entryDy=0;exitX=0.25;exitY=1;exitDx=0;exitDy=0;" edge="1" parent="1">
          <mxGeometry width="50" height="50" relative="1" as="geometry">
            <mxPoint x="-189" y="480" as="sourcePoint" />
            <mxPoint x="-189" y="420" as="targetPoint" />
          </mxGeometry>
        </mxCell>
        <mxCell id="swwXbOUosh_vLgJjzAKB-66" value="" style="endArrow=none;dashed=1;html=1;rounded=0;entryX=0.5;entryY=0;entryDx=0;entryDy=0;exitX=0.5;exitY=1;exitDx=0;exitDy=0;" edge="1" parent="1">
          <mxGeometry width="50" height="50" relative="1" as="geometry">
            <mxPoint x="-180" y="480" as="sourcePoint" />
            <mxPoint x="-180" y="420" as="targetPoint" />
          </mxGeometry>
        </mxCell>
        <mxCell id="swwXbOUosh_vLgJjzAKB-67" value="" style="endArrow=none;dashed=1;html=1;rounded=0;entryX=0.5;entryY=0;entryDx=0;entryDy=0;exitX=0.5;exitY=1;exitDx=0;exitDy=0;" edge="1" parent="1">
          <mxGeometry width="50" height="50" relative="1" as="geometry">
            <mxPoint x="-98" y="500" as="sourcePoint" />
            <mxPoint x="-98" y="440" as="targetPoint" />
          </mxGeometry>
        </mxCell>
        <mxCell id="swwXbOUosh_vLgJjzAKB-68" value="" style="endArrow=none;dashed=1;html=1;rounded=0;entryX=0.25;entryY=0;entryDx=0;entryDy=0;exitX=0.25;exitY=1;exitDx=0;exitDy=0;" edge="1" parent="1">
          <mxGeometry width="50" height="50" relative="1" as="geometry">
            <mxPoint x="-108" y="500" as="sourcePoint" />
            <mxPoint x="-108" y="440" as="targetPoint" />
          </mxGeometry>
        </mxCell>
        <mxCell id="swwXbOUosh_vLgJjzAKB-69" value="" style="endArrow=none;dashed=1;html=1;rounded=0;entryX=0.5;entryY=0;entryDx=0;entryDy=0;exitX=0.5;exitY=1;exitDx=0;exitDy=0;" edge="1" parent="1">
          <mxGeometry width="50" height="50" relative="1" as="geometry">
            <mxPoint x="-25" y="520" as="sourcePoint" />
            <mxPoint x="-25" y="460" as="targetPoint" />
          </mxGeometry>
        </mxCell>
        <mxCell id="swwXbOUosh_vLgJjzAKB-70" value="" style="endArrow=none;dashed=1;html=1;rounded=0;entryX=0.75;entryY=0;entryDx=0;entryDy=0;exitX=0.75;exitY=1;exitDx=0;exitDy=0;" edge="1" parent="1">
          <mxGeometry width="50" height="50" relative="1" as="geometry">
            <mxPoint x="-15" y="520" as="sourcePoint" />
            <mxPoint x="-15" y="460" as="targetPoint" />
          </mxGeometry>
        </mxCell>
        <mxCell id="swwXbOUosh_vLgJjzAKB-71" value="&lt;font style=&quot;font-size: 14px;&quot;&gt;&lt;font style=&quot;&quot;&gt;b&lt;sub style=&quot;&quot;&gt;j&lt;/sub&gt;&lt;/font&gt;&lt;font style=&quot;&quot;&gt;&lt;sup style=&quot;&quot;&gt;(1)&lt;/sup&gt;&lt;/font&gt;&lt;/font&gt;" style="text;html=1;align=center;verticalAlign=middle;whiteSpace=wrap;rounded=0;rotation=45;" vertex="1" parent="1">
          <mxGeometry x="-207.9" y="399.11" width="50" height="20" as="geometry" />
        </mxCell>
        <mxCell id="swwXbOUosh_vLgJjzAKB-72" value="&lt;font style=&quot;font-size: 14px;&quot;&gt;&lt;font style=&quot;&quot;&gt;b&lt;sub style=&quot;&quot;&gt;j&#39;&lt;/sub&gt;&lt;/font&gt;&lt;font style=&quot;&quot;&gt;&lt;sup style=&quot;&quot;&gt;(1)&lt;/sup&gt;&lt;/font&gt;&lt;/font&gt;" style="text;html=1;align=center;verticalAlign=middle;whiteSpace=wrap;rounded=0;rotation=45;" vertex="1" parent="1">
          <mxGeometry x="-126.9" y="418.11" width="50" height="20" as="geometry" />
        </mxCell>
        <mxCell id="swwXbOUosh_vLgJjzAKB-73" value="&lt;font style=&quot;font-size: 14px;&quot;&gt;&lt;font style=&quot;&quot;&gt;b&lt;sub style=&quot;&quot;&gt;j&#39;&#39;&lt;/sub&gt;&lt;/font&gt;&lt;font style=&quot;&quot;&gt;&lt;sup style=&quot;&quot;&gt;(1)&lt;/sup&gt;&lt;/font&gt;&lt;/font&gt;" style="text;html=1;align=center;verticalAlign=middle;whiteSpace=wrap;rounded=0;rotation=45;" vertex="1" parent="1">
          <mxGeometry x="-44.900000000000006" y="439.11" width="50" height="20" as="geometry" />
        </mxCell>
        <mxCell id="swwXbOUosh_vLgJjzAKB-100" style="edgeStyle=orthogonalEdgeStyle;rounded=0;orthogonalLoop=1;jettySize=auto;html=1;" edge="1" parent="1" source="swwXbOUosh_vLgJjzAKB-74" target="swwXbOUosh_vLgJjzAKB-85">
          <mxGeometry relative="1" as="geometry" />
        </mxCell>
        <mxCell id="swwXbOUosh_vLgJjzAKB-74" value="&lt;font style=&quot;font-size: 14px;&quot;&gt;f&lt;sub&gt;1&lt;/sub&gt;&lt;/font&gt;" style="triangle;whiteSpace=wrap;html=1;" vertex="1" parent="1">
          <mxGeometry x="20" y="560" width="60" height="60" as="geometry" />
        </mxCell>
        <mxCell id="swwXbOUosh_vLgJjzAKB-101" style="edgeStyle=orthogonalEdgeStyle;rounded=0;orthogonalLoop=1;jettySize=auto;html=1;entryX=0;entryY=0.5;entryDx=0;entryDy=0;" edge="1" parent="1" source="swwXbOUosh_vLgJjzAKB-75" target="swwXbOUosh_vLgJjzAKB-86">
          <mxGeometry relative="1" as="geometry" />
        </mxCell>
        <mxCell id="swwXbOUosh_vLgJjzAKB-75" value="&lt;font style=&quot;font-size: 14px;&quot;&gt;f&lt;sub style=&quot;&quot;&gt;2&lt;/sub&gt;&lt;/font&gt;" style="triangle;whiteSpace=wrap;html=1;" vertex="1" parent="1">
          <mxGeometry x="20" y="680" width="60" height="60" as="geometry" />
        </mxCell>
        <mxCell id="swwXbOUosh_vLgJjzAKB-102" style="edgeStyle=orthogonalEdgeStyle;rounded=0;orthogonalLoop=1;jettySize=auto;html=1;entryX=0;entryY=0.5;entryDx=0;entryDy=0;" edge="1" parent="1" source="swwXbOUosh_vLgJjzAKB-76" target="swwXbOUosh_vLgJjzAKB-87">
          <mxGeometry relative="1" as="geometry" />
        </mxCell>
        <mxCell id="swwXbOUosh_vLgJjzAKB-76" value="&lt;font style=&quot;font-size: 14px;&quot;&gt;f&lt;sub&gt;3&lt;/sub&gt;&lt;/font&gt;" style="triangle;whiteSpace=wrap;html=1;" vertex="1" parent="1">
          <mxGeometry x="20" y="800" width="60" height="60" as="geometry" />
        </mxCell>
        <mxCell id="swwXbOUosh_vLgJjzAKB-83" value="Parameter" style="text;html=1;align=center;verticalAlign=middle;resizable=0;points=[];autosize=1;strokeColor=none;fillColor=none;" vertex="1" parent="1">
          <mxGeometry x="-293" y="738" width="80" height="30" as="geometry" />
        </mxCell>
        <mxCell id="swwXbOUosh_vLgJjzAKB-84" value="Parameter" style="text;html=1;align=center;verticalAlign=middle;resizable=0;points=[];autosize=1;strokeColor=none;fillColor=none;" vertex="1" parent="1">
          <mxGeometry x="-140" y="369.11" width="80" height="30" as="geometry" />
        </mxCell>
        <mxCell id="swwXbOUosh_vLgJjzAKB-85" value="" style="rounded=0;whiteSpace=wrap;html=1;" vertex="1" parent="1">
          <mxGeometry x="99" y="560" width="80" height="60" as="geometry" />
        </mxCell>
        <mxCell id="swwXbOUosh_vLgJjzAKB-86" value="" style="rounded=0;whiteSpace=wrap;html=1;" vertex="1" parent="1">
          <mxGeometry x="240" y="680" width="80" height="60" as="geometry" />
        </mxCell>
        <mxCell id="swwXbOUosh_vLgJjzAKB-87" value="" style="rounded=0;whiteSpace=wrap;html=1;" vertex="1" parent="1">
          <mxGeometry x="382" y="800" width="80" height="60" as="geometry" />
        </mxCell>
        <mxCell id="swwXbOUosh_vLgJjzAKB-88" value="&lt;font style=&quot;font-size: 14px;&quot;&gt;&lt;b&gt;X&lt;/b&gt;&lt;b&gt;&lt;sup&gt;(1)&lt;/sup&gt;&lt;/b&gt;&lt;/font&gt;" style="text;html=1;align=center;verticalAlign=middle;resizable=0;points=[];autosize=1;strokeColor=none;fillColor=none;" vertex="1" parent="1">
          <mxGeometry x="73" y="539" width="50" height="30" as="geometry" />
        </mxCell>
        <mxCell id="swwXbOUosh_vLgJjzAKB-92" value="" style="endArrow=none;html=1;rounded=0;" edge="1" parent="1">
          <mxGeometry width="50" height="50" relative="1" as="geometry">
            <mxPoint x="82" y="546" as="sourcePoint" />
            <mxPoint x="92" y="536" as="targetPoint" />
          </mxGeometry>
        </mxCell>
        <mxCell id="swwXbOUosh_vLgJjzAKB-93" value="" style="endArrow=none;html=1;rounded=0;" edge="1" parent="1">
          <mxGeometry width="50" height="50" relative="1" as="geometry">
            <mxPoint x="92" y="536" as="sourcePoint" />
            <mxPoint x="102" y="546" as="targetPoint" />
          </mxGeometry>
        </mxCell>
        <mxCell id="swwXbOUosh_vLgJjzAKB-94" value="&lt;font style=&quot;font-size: 14px;&quot;&gt;&lt;b&gt;X&lt;/b&gt;&lt;b&gt;&lt;sup&gt;(2)&lt;/sup&gt;&lt;/b&gt;&lt;/font&gt;" style="text;html=1;align=center;verticalAlign=middle;resizable=0;points=[];autosize=1;strokeColor=none;fillColor=none;" vertex="1" parent="1">
          <mxGeometry x="215" y="658" width="50" height="30" as="geometry" />
        </mxCell>
        <mxCell id="swwXbOUosh_vLgJjzAKB-95" value="" style="endArrow=none;html=1;rounded=0;" edge="1" parent="1">
          <mxGeometry width="50" height="50" relative="1" as="geometry">
            <mxPoint x="224" y="665" as="sourcePoint" />
            <mxPoint x="234" y="655" as="targetPoint" />
          </mxGeometry>
        </mxCell>
        <mxCell id="swwXbOUosh_vLgJjzAKB-96" value="" style="endArrow=none;html=1;rounded=0;" edge="1" parent="1">
          <mxGeometry width="50" height="50" relative="1" as="geometry">
            <mxPoint x="234" y="655" as="sourcePoint" />
            <mxPoint x="244" y="665" as="targetPoint" />
          </mxGeometry>
        </mxCell>
        <mxCell id="swwXbOUosh_vLgJjzAKB-97" value="&lt;font style=&quot;font-size: 14px;&quot;&gt;&lt;b&gt;X&lt;/b&gt;&lt;b&gt;&lt;sup&gt;(2)&lt;/sup&gt;&lt;/b&gt;&lt;/font&gt;" style="text;html=1;align=center;verticalAlign=middle;resizable=0;points=[];autosize=1;strokeColor=none;fillColor=none;" vertex="1" parent="1">
          <mxGeometry x="357.24" y="778" width="50" height="30" as="geometry" />
        </mxCell>
        <mxCell id="swwXbOUosh_vLgJjzAKB-98" value="" style="endArrow=none;html=1;rounded=0;" edge="1" parent="1">
          <mxGeometry width="50" height="50" relative="1" as="geometry">
            <mxPoint x="366.24" y="785" as="sourcePoint" />
            <mxPoint x="376.24" y="775" as="targetPoint" />
          </mxGeometry>
        </mxCell>
        <mxCell id="swwXbOUosh_vLgJjzAKB-99" value="" style="endArrow=none;html=1;rounded=0;" edge="1" parent="1">
          <mxGeometry width="50" height="50" relative="1" as="geometry">
            <mxPoint x="376.24" y="775" as="sourcePoint" />
            <mxPoint x="386.24" y="785" as="targetPoint" />
          </mxGeometry>
        </mxCell>
        <mxCell id="swwXbOUosh_vLgJjzAKB-105" value="" style="endArrow=none;dashed=1;html=1;dashPattern=1 3;strokeWidth=2;rounded=0;exitX=1;exitY=0.75;exitDx=0;exitDy=0;entryX=0;entryY=0.75;entryDx=0;entryDy=0;" edge="1" parent="1" source="swwXbOUosh_vLgJjzAKB-85" target="swwXbOUosh_vLgJjzAKB-5">
          <mxGeometry width="50" height="50" relative="1" as="geometry">
            <mxPoint x="259" y="640" as="sourcePoint" />
            <mxPoint x="309" y="590" as="targetPoint" />
          </mxGeometry>
        </mxCell>
        <mxCell id="swwXbOUosh_vLgJjzAKB-106" value="Compare" style="edgeLabel;html=1;align=center;verticalAlign=middle;resizable=0;points=[];" vertex="1" connectable="0" parent="swwXbOUosh_vLgJjzAKB-105">
          <mxGeometry x="0.3226" y="3" relative="1" as="geometry">
            <mxPoint x="-19" as="offset" />
          </mxGeometry>
        </mxCell>
        <mxCell id="swwXbOUosh_vLgJjzAKB-107" value="" style="endArrow=none;dashed=1;html=1;dashPattern=1 3;strokeWidth=2;rounded=0;exitX=1;exitY=0.75;exitDx=0;exitDy=0;entryX=0;entryY=0.75;entryDx=0;entryDy=0;" edge="1" parent="1" source="swwXbOUosh_vLgJjzAKB-86" target="swwXbOUosh_vLgJjzAKB-40">
          <mxGeometry width="50" height="50" relative="1" as="geometry">
            <mxPoint x="210" y="615" as="sourcePoint" />
            <mxPoint x="330" y="614" as="targetPoint" />
          </mxGeometry>
        </mxCell>
        <mxCell id="swwXbOUosh_vLgJjzAKB-108" value="Compare" style="edgeLabel;html=1;align=center;verticalAlign=middle;resizable=0;points=[];" vertex="1" connectable="0" parent="swwXbOUosh_vLgJjzAKB-107">
          <mxGeometry x="0.3226" y="3" relative="1" as="geometry">
            <mxPoint x="-19" as="offset" />
          </mxGeometry>
        </mxCell>
        <mxCell id="swwXbOUosh_vLgJjzAKB-109" value="" style="endArrow=none;dashed=1;html=1;dashPattern=1 3;strokeWidth=2;rounded=0;exitX=1;exitY=0.75;exitDx=0;exitDy=0;entryX=0;entryY=0.75;entryDx=0;entryDy=0;" edge="1" parent="1" source="swwXbOUosh_vLgJjzAKB-87" target="swwXbOUosh_vLgJjzAKB-47">
          <mxGeometry width="50" height="50" relative="1" as="geometry">
            <mxPoint x="242" y="625" as="sourcePoint" />
            <mxPoint x="362" y="624" as="targetPoint" />
          </mxGeometry>
        </mxCell>
        <mxCell id="swwXbOUosh_vLgJjzAKB-110" value="Compare" style="edgeLabel;html=1;align=center;verticalAlign=middle;resizable=0;points=[];" vertex="1" connectable="0" parent="swwXbOUosh_vLgJjzAKB-109">
          <mxGeometry x="0.3226" y="3" relative="1" as="geometry">
            <mxPoint x="-19" as="offset" />
          </mxGeometry>
        </mxCell>
        <mxCell id="swwXbOUosh_vLgJjzAKB-111" value="" style="triangle;whiteSpace=wrap;html=1;rotation=-180;" vertex="1" parent="1">
          <mxGeometry x="-455" y="670" width="60" height="80" as="geometry" />
        </mxCell>
        <mxCell id="swwXbOUosh_vLgJjzAKB-112" value="" style="endArrow=classic;html=1;rounded=0;exitX=0;exitY=0.5;exitDx=0;exitDy=0;entryX=0;entryY=0.5;entryDx=0;entryDy=0;" edge="1" parent="1" source="swwXbOUosh_vLgJjzAKB-57" target="swwXbOUosh_vLgJjzAKB-111">
          <mxGeometry width="50" height="50" relative="1" as="geometry">
            <mxPoint x="-480" y="740" as="sourcePoint" />
            <mxPoint x="-430" y="690" as="targetPoint" />
          </mxGeometry>
        </mxCell>
        <mxCell id="swwXbOUosh_vLgJjzAKB-119" value="Reverse&lt;br&gt;Gradient&lt;br&gt;Layer" style="edgeLabel;html=1;align=center;verticalAlign=middle;resizable=0;points=[];" vertex="1" connectable="0" parent="swwXbOUosh_vLgJjzAKB-112">
          <mxGeometry x="-0.181" y="-1" relative="1" as="geometry">
            <mxPoint x="-17" y="1" as="offset" />
          </mxGeometry>
        </mxCell>
        <mxCell id="swwXbOUosh_vLgJjzAKB-113" value="" style="endArrow=classic;html=1;rounded=0;exitX=1;exitY=0.25;exitDx=0;exitDy=0;entryX=0;entryY=0.75;entryDx=0;entryDy=0;edgeStyle=orthogonalEdgeStyle;strokeColor=#FF0000;" edge="1" parent="1" source="swwXbOUosh_vLgJjzAKB-57" target="swwXbOUosh_vLgJjzAKB-74">
          <mxGeometry width="50" height="50" relative="1" as="geometry">
            <mxPoint x="-121" y="660" as="sourcePoint" />
            <mxPoint x="49" y="605" as="targetPoint" />
            <Array as="points">
              <mxPoint x="-181" y="695" />
              <mxPoint x="-181" y="605" />
            </Array>
          </mxGeometry>
        </mxCell>
        <mxCell id="swwXbOUosh_vLgJjzAKB-114" value="" style="endArrow=classic;html=1;rounded=0;exitX=1;exitY=0.25;exitDx=0;exitDy=0;entryX=0;entryY=0.75;entryDx=0;entryDy=0;edgeStyle=orthogonalEdgeStyle;strokeColor=#FF0000;" edge="1" parent="1" source="swwXbOUosh_vLgJjzAKB-57" target="swwXbOUosh_vLgJjzAKB-75">
          <mxGeometry width="50" height="50" relative="1" as="geometry">
            <mxPoint x="-101" y="640" as="sourcePoint" />
            <mxPoint x="49" y="725" as="targetPoint" />
            <Array as="points">
              <mxPoint x="-181" y="695" />
              <mxPoint x="-181" y="725" />
            </Array>
          </mxGeometry>
        </mxCell>
        <mxCell id="swwXbOUosh_vLgJjzAKB-115" value="" style="endArrow=classic;html=1;rounded=0;exitX=1;exitY=0.25;exitDx=0;exitDy=0;entryX=0;entryY=0.75;entryDx=0;entryDy=0;edgeStyle=orthogonalEdgeStyle;strokeColor=#FF0000;" edge="1" parent="1" source="swwXbOUosh_vLgJjzAKB-57" target="swwXbOUosh_vLgJjzAKB-76">
          <mxGeometry width="50" height="50" relative="1" as="geometry">
            <mxPoint x="-101" y="640" as="sourcePoint" />
            <mxPoint x="49" y="845" as="targetPoint" />
            <Array as="points">
              <mxPoint x="-181" y="695" />
              <mxPoint x="-181" y="845" />
            </Array>
          </mxGeometry>
        </mxCell>
        <mxCell id="swwXbOUosh_vLgJjzAKB-116" value="" style="endArrow=classic;html=1;rounded=0;entryX=0;entryY=0.25;entryDx=0;entryDy=0;exitX=0.25;exitY=1;exitDx=0;exitDy=0;edgeStyle=orthogonalEdgeStyle;" edge="1" parent="1" source="swwXbOUosh_vLgJjzAKB-58" target="swwXbOUosh_vLgJjzAKB-74">
          <mxGeometry width="50" height="50" relative="1" as="geometry">
            <mxPoint x="-130" y="640" as="sourcePoint" />
            <mxPoint x="-80" y="590" as="targetPoint" />
          </mxGeometry>
        </mxCell>
        <mxCell id="swwXbOUosh_vLgJjzAKB-117" value="" style="endArrow=classic;html=1;rounded=0;entryX=0;entryY=0.25;entryDx=0;entryDy=0;exitX=0.5;exitY=1;exitDx=0;exitDy=0;edgeStyle=orthogonalEdgeStyle;" edge="1" parent="1" source="swwXbOUosh_vLgJjzAKB-59" target="swwXbOUosh_vLgJjzAKB-75">
          <mxGeometry width="50" height="50" relative="1" as="geometry">
            <mxPoint x="-130" y="640" as="sourcePoint" />
            <mxPoint x="-80" y="590" as="targetPoint" />
          </mxGeometry>
        </mxCell>
        <mxCell id="swwXbOUosh_vLgJjzAKB-118" value="" style="endArrow=classic;html=1;rounded=0;entryX=0;entryY=0.25;entryDx=0;entryDy=0;exitX=0.75;exitY=1;exitDx=0;exitDy=0;edgeStyle=orthogonalEdgeStyle;" edge="1" parent="1" source="swwXbOUosh_vLgJjzAKB-60" target="swwXbOUosh_vLgJjzAKB-76">
          <mxGeometry width="50" height="50" relative="1" as="geometry">
            <mxPoint x="-130" y="640" as="sourcePoint" />
            <mxPoint x="-80" y="590" as="targetPoint" />
          </mxGeometry>
        </mxCell>
        <mxCell id="swwXbOUosh_vLgJjzAKB-120" value="3-column&lt;br&gt;binary&lt;br&gt;mask&lt;br&gt;where cell value denotes whether assay available for particular dataset" style="text;html=1;align=center;verticalAlign=middle;whiteSpace=wrap;rounded=0;" vertex="1" parent="1">
          <mxGeometry x="-546" y="610" width="60" height="200" as="geometry" />
        </mxCell>
        <mxCell id="swwXbOUosh_vLgJjzAKB-121" value="" style="endArrow=classic;html=1;rounded=0;entryX=1;entryY=0.5;entryDx=0;entryDy=0;exitX=1;exitY=0.5;exitDx=0;exitDy=0;" edge="1" parent="1" source="swwXbOUosh_vLgJjzAKB-111">
          <mxGeometry width="50" height="50" relative="1" as="geometry">
            <mxPoint x="-460" y="740" as="sourcePoint" />
            <mxPoint x="-485" y="710" as="targetPoint" />
          </mxGeometry>
        </mxCell>
      </root>
    </mxGraphModel>
  </diagram>
</mxfile>
